<svg width="1440" height="1990" viewBox="0 0 1440 1990" fill="none" xmlns="http://www.w3.org/2000/svg">
<mask id="mask0_0_472" style="mask-type:alpha" maskUnits="userSpaceOnUse" x="0" y="0" width="1440" height="1990">
<rect width="1440" height="1990" fill="url(#paint0_linear_0_472)"/>
</mask>
<g mask="url(#mask0_0_472)">
<path d="M927.31 941.78C916.29 974.72 922.52 1013.12 945.09 1039.86C965.09 1063.51 998.51 1078.44 1029.16 1068.55C1056.32 1059.78 1079.49 1031.83 1074.5 1002.17C1070.1 976 1042.64 954.26 1016 958.65C989 963.09 976 991.83 978.06 1016.76C980.51 1047.06 1003.79 1068.76 1030.61 1079.87C1066.22 1094.67 1105.18 1091.62 1142.85 1092.59C1178 1093.49 1217.07 1099.09 1243.15 1125.13C1270.15 1152.05 1271.41 1193.96 1256.28 1227.19C1248.61 1244.03 1237.28 1259.05 1224.18 1272.04C1210.9 1285.22 1195.42 1296.59 1177.92 1303.5C1145.82 1316.16 1103.03 1311.65 1083.38 1280.1C1074.86 1266.41 1071.57 1249.01 1076.67 1233.5C1081.67 1218.31 1094.57 1207.33 1109.49 1202.39C1124.59 1197.34 1141.07 1198.38 1155.41 1205.29C1170.29 1212.56 1182.03 1225.13 1189.81 1239.61C1208.97 1275.3 1201.43 1317.76 1187.81 1353.93C1174.74 1388.64 1155.87 1422.78 1156.62 1460.93C1156.92 1476.42 1160.34 1492.18 1168.55 1505.47C1177 1519.1 1190.08 1528.6 1205 1534.23C1242.25 1548.35 1282.81 1538.03 1321.09 1546C1352.55 1552.56 1381.4 1569.89 1402.76 1593.8C1413.49 1605.75 1422.19 1619.38 1428.54 1634.13C1436.1 1651.88 1438.54 1671.35 1446.44 1688.96C1452.64 1702.76 1463.58 1716.19 1478.79 1720.15C1496.72 1724.82 1513.94 1714.93 1529.55 1707.45C1544.38 1700.33 1564 1694 1578.61 1705C1579.77 1705.87 1580.89 1703.91 1579.74 1703.06C1566.74 1693.28 1549.35 1696.68 1535.34 1702.39C1518.03 1709.45 1500.19 1722.74 1480.47 1718.25C1462.47 1714.17 1451.47 1697.04 1445.53 1680.82C1439.3 1663.64 1436.36 1645.55 1428.61 1628.89C1415.56 1600.79 1393.42 1577.13 1366.79 1561.43C1353.45 1553.53 1338.96 1547.76 1323.85 1544.31C1304.69 1539.99 1285 1540.31 1265.47 1540.23C1230 1540 1187.89 1536 1168.78 1501.37C1151.16 1469.37 1159.78 1431.03 1172.05 1398.94C1186.19 1362.06 1204.61 1326.19 1203.6 1285.61C1202.79 1253.48 1188.04 1219.94 1158.55 1204.37C1133.84 1191.37 1099.9 1195.74 1082.18 1218.49C1063.51 1242.49 1072.34 1278.34 1094.92 1296.49C1121.42 1317.78 1158.92 1316 1188.07 1301.41C1218.82 1285.99 1245.62 1257.57 1259.25 1226.01C1272.5 1195.32 1272.33 1157.49 1250.88 1130.43C1230.78 1105.07 1197.37 1094.73 1166.32 1091.69C1126.32 1087.79 1085.22 1094.08 1046.12 1082.89C1016.21 1074.34 985.87 1054.21 980.83 1021.27C976.71 994.32 991.18 960.87 1022.14 960.34C1037.01 960.09 1051.28 967.85 1060.84 978.93C1071.25 990.744 1075.19 1006.92 1071.37 1022.2C1067.47 1037.76 1056.65 1051.11 1043.17 1059.54C1028.95 1068.38 1011.87 1071.41 995.47 1068C960.2 1060.94 933.92 1030.71 926.47 996.33C922.622 978.406 923.658 959.777 929.47 942.39C929.94 941 927.77 940.41 927.31 941.78Z" fill="#9A97ED"/>
<path d="M180.999 0.0232937C150.729 6.55329 126.569 31.1433 117.559 60.3433C108.229 90.5933 117.659 122.343 140.949 143.543C163.439 163.993 196.949 173.643 226.049 162.463C253.269 152.003 276.919 122.173 263.779 92.3533C252.679 67.1733 219.779 52.4533 194.079 63.4433C168.379 74.4333 155.889 105.193 160.589 131.753C166.529 165.263 199.089 183.753 228.859 193.123C264.919 204.543 306.929 206.223 336.469 232.503C359.759 253.223 371.179 285.503 368.859 316.333C367.798 331.783 362.9 346.724 354.609 359.803C345.439 373.993 329.789 386.143 312.529 387.803C293.329 389.653 279.529 374.923 278.139 356.433C276.629 336.103 288.949 318.333 300.659 302.903C323.029 273.443 351.659 244.113 388.819 235.033C421.729 227.033 461.309 236.093 478.759 267.423C498.539 302.943 484.459 345.333 463.489 376.673C452.109 393.673 438.579 409.183 425.259 424.673C411.719 440.423 398.059 456.093 385.259 472.483C361.039 503.563 339.909 537.673 330.799 576.413C322.249 612.753 324.799 651.833 344.969 684.023C363.709 714.023 393.969 735.193 426.149 748.763C466.349 765.763 510.049 772.443 552.649 780.583L689.289 806.703L754.809 819.223C756.219 819.493 756.809 817.333 755.409 817.053L620.409 791.243C576.489 782.853 532.259 775.423 488.639 765.583C449.809 756.813 410.859 744.043 379.429 718.773C365.509 707.583 353.269 694.153 344.379 678.593C334.836 661.596 329.414 642.597 328.549 623.123C324.199 538.413 386.939 473.503 437.669 413.613C461.829 385.073 486.669 353.293 489.989 314.613C491.439 297.893 488.789 280.413 480.399 265.703C472.67 252.43 460.723 242.123 446.459 236.423C415.679 223.773 381.009 230.643 353.629 248.073C338.329 257.843 324.999 270.423 313.099 284.023C300.949 297.923 288.239 313.193 280.859 330.243C274.579 344.763 273.149 362.653 282.409 376.313C290.689 388.513 305.349 392.373 319.219 388.883C349.429 381.283 366.879 350.693 370.569 321.633C374.219 292.813 365.789 262.263 346.949 240.023C322.949 211.733 285.489 204.943 251.239 196.803C218.799 189.103 178.969 176.113 165.739 141.923C155.169 114.613 166.509 78.4233 194.009 65.9233C221.789 53.2733 259.649 72.9233 264.729 103.213C270.829 139.513 231.169 165.313 199.119 164.943C167.069 164.573 135.729 143.943 122.519 114.723C108.789 84.3033 118.429 48.3033 141.159 24.9633C152.093 13.5655 166.152 5.654 181.569 2.22329C182.999 1.91329 182.379 -0.246706 180.999 0.0232937Z" fill="#9A97ED"/>
</g>
<defs>
<linearGradient id="paint0_linear_0_472" x1="1440" y1="1990" x2="1440" y2="0" gradientUnits="userSpaceOnUse">
<stop stop-color="white" stop-opacity="0.01"/>
<stop offset="1" stop-color="#EDE5F0" stop-opacity="0.504289"/>
</linearGradient>
</defs>
</svg>
