<svg width="375" height="583" viewBox="0 0 375 583" fill="none" xmlns="http://www.w3.org/2000/svg">
<path d="M-5.356 0.0165644C-26.8813 4.66012 -44.0618 22.1463 -50.4689 42.9108C-57.1036 64.4219 -50.3978 86.9997 -33.836 102.075C-17.8431 116.617 5.98623 123.48 26.6796 115.529C46.036 108.091 62.8538 86.8788 53.5098 65.6735C45.6164 47.7677 22.2209 37.3001 3.94533 45.1152C-14.3302 52.9303 -23.212 74.8041 -19.8698 93.6912C-15.6458 117.521 7.508 130.669 28.6778 137.332C54.3204 145.453 84.1942 146.648 105.2 165.336C121.762 180.07 129.883 203.025 128.233 224.948C127.479 235.934 123.996 246.559 118.1 255.86C111.579 265.951 100.45 274.591 88.1764 275.771C74.5231 277.087 64.7098 266.612 63.7213 253.464C62.6476 239.007 71.4084 226.37 79.7355 215.398C95.6431 194.449 116.002 173.592 142.427 167.135C165.83 161.446 193.976 167.889 206.384 190.168C220.45 215.426 210.438 245.57 195.526 267.857C187.433 279.945 177.812 290.975 168.34 301.99C158.712 313.19 148.998 324.333 139.896 335.988C122.672 358.089 107.647 382.345 101.168 409.894C95.0884 435.736 96.9018 463.526 111.245 486.417C124.571 507.75 146.089 522.804 168.973 532.454C197.56 544.543 228.635 549.293 258.928 555.081L356.095 573.656L402.687 582.559C403.689 582.751 404.109 581.215 403.113 581.016L307.113 562.662C275.881 556.696 244.429 551.412 213.41 544.415C185.798 538.178 158.1 529.097 135.75 511.128C125.851 503.17 117.147 493.62 110.825 482.555C104.039 470.469 100.183 456.958 99.5684 443.11C96.4751 382.872 141.09 336.713 177.165 294.125C194.345 273.83 212.009 251.231 214.37 223.725C215.401 211.835 213.517 199.405 207.551 188.945C202.054 179.506 193.558 172.176 183.416 168.123C161.528 159.128 136.873 164.013 117.403 176.408C106.523 183.355 97.044 192.301 88.5818 201.972C79.9418 211.857 70.9036 222.715 65.6556 234.84C61.1898 245.165 60.1729 257.887 66.7578 267.601C72.6458 276.276 83.0707 279.021 92.9338 276.539C114.416 271.135 126.825 249.382 129.449 228.717C132.045 208.223 126.05 186.498 112.653 170.683C95.5862 150.566 68.948 145.737 44.5924 139.949C21.524 134.473 -6.79956 125.236 -16.2076 100.923C-23.724 81.5028 -15.66 55.7677 3.89555 46.8788C23.6502 37.8832 50.5729 51.8566 54.1853 73.3961C58.5231 99.2094 30.3204 117.556 7.52933 117.293C-15.2618 117.03 -37.548 102.36 -46.9418 81.581C-56.7053 59.949 -49.8502 34.349 -33.6867 17.7517C-25.9115 9.64656 -15.914 4.02062 -4.95067 1.58101C-3.93378 1.36056 -4.37467 -0.175436 -5.356 0.0165644Z" fill="#9A97ED"/>
</svg>
