<svg width="369" height="556" viewBox="0 0 369 556" fill="none" xmlns="http://www.w3.org/2000/svg">
<path d="M4.42057 0.710128C-3.41587 24.1341 1.01435 51.4408 17.0641 70.4559C31.2864 87.2737 55.0517 97.8906 76.8472 90.8577C96.161 84.6212 112.637 64.7457 109.089 43.6541C105.96 25.0444 86.433 9.58479 67.489 12.7066C48.289 15.8639 39.0446 36.3012 40.5095 54.0292C42.2517 75.5759 58.8064 91.007 77.8783 98.9075C103.201 109.432 130.906 107.263 157.693 107.953C182.689 108.593 210.472 112.575 229.018 131.092C248.218 150.235 249.114 180.038 238.355 203.668C232.901 215.643 224.844 226.324 215.528 235.562C206.085 244.934 195.077 253.019 182.632 257.933C159.805 266.936 129.377 263.729 115.404 241.293C109.345 231.558 107.005 219.185 110.632 208.155C114.188 197.354 123.361 189.546 133.971 186.033C144.709 182.441 156.424 183.18 166.625 188.095C177.206 193.265 185.555 202.203 191.087 212.5C204.712 237.88 199.35 268.074 189.665 293.795C180.371 318.477 166.952 342.755 167.485 369.883C167.699 380.899 170.131 392.106 175.969 401.556C181.978 411.249 191.279 418.004 201.889 422.008C228.378 432.049 257.221 424.71 284.442 430.378C306.813 435.043 327.329 447.366 342.518 464.369C350.146 472.87 356.338 482.556 360.851 493.048C366.227 505.67 367.962 519.516 373.58 532.038C377.989 541.852 385.768 551.402 396.584 554.218C409.334 557.539 421.58 550.506 432.68 545.187C443.226 540.123 457.178 535.622 467.567 543.444C468.392 544.063 469.189 542.669 468.371 542.065C459.126 535.11 446.76 537.528 436.797 541.588C424.488 546.609 411.802 556.059 397.779 552.867C384.979 549.965 377.157 537.784 372.933 526.25C368.502 514.033 366.412 501.169 360.901 489.322C351.621 469.339 335.877 452.515 316.94 441.35C307.453 435.735 297.152 431.628 286.405 429.176C272.78 426.104 258.778 426.331 244.89 426.275C219.667 426.111 189.722 423.267 176.133 398.641C163.603 375.885 169.733 348.621 178.458 325.802C188.513 299.576 201.612 274.068 200.893 245.211C200.317 222.363 189.829 198.513 168.858 187.441C151.286 178.196 127.151 181.304 114.55 197.482C101.274 214.548 107.553 240.042 123.61 252.948C142.454 268.088 169.121 266.822 189.85 256.447C211.717 245.482 230.774 225.272 240.467 202.829C249.889 181.005 249.768 154.104 234.515 134.861C220.221 116.827 196.463 109.475 174.383 107.313C145.939 104.539 116.712 109.012 88.9077 101.055C67.6384 94.975 46.0632 80.6604 42.4792 57.2364C39.5495 38.0719 49.8392 14.2852 71.8552 13.9083C82.4295 13.7306 92.577 19.2488 99.3752 27.1279C106.779 35.529 109.579 47.0338 106.863 57.8977C104.09 68.9626 96.3957 78.4559 86.8099 84.4506C76.6944 90.7351 64.5496 92.8891 52.8899 90.4666C27.809 85.4461 9.12102 63.9492 3.82324 39.5012C1.08661 26.7551 1.82339 13.5079 5.95657 1.14391C6.29079 0.155461 4.74768 -0.264095 4.42057 0.710128Z" fill="#9A97ED"/>
</svg>
