<svg width="185" height="42" viewBox="0 0 185 42" fill="none" xmlns="http://www.w3.org/2000/svg">
<circle opacity="0.2" cx="21" cy="21" r="20" stroke="#D8D8D8"/>
<path fill-rule="evenodd" clip-rule="evenodd" d="M27 20.5335C27.0006 17.5904 24.7103 15.162 21.7885 15.0077C18.8666 14.8535 16.3362 17.0273 16.0305 19.9543C15.7248 22.8813 17.7509 25.5367 20.6408 25.9965V22.1323H19.2446V20.5335H20.6408V19.3144C20.58 18.7382 20.7768 18.1646 21.178 17.7489C21.5792 17.3331 22.1434 17.1182 22.7177 17.1623C23.1302 17.1678 23.5418 17.2038 23.949 17.2702V18.6332H23.256C23.0169 18.6018 22.7765 18.6813 22.6027 18.8494C22.4289 19.0176 22.3404 19.256 22.3623 19.4976V20.5349H23.8878L23.6437 22.1337H22.3595V26C25.0328 25.5746 27.0011 23.256 27 20.5335Z" fill="white"/>
<g clip-path="url(#clip0_0_2443)">
<circle opacity="0.2" cx="93" cy="21" r="20" stroke="#D8D8D8"/>
<path fill-rule="evenodd" clip-rule="evenodd" d="M98.1387 18.9911C97.9977 18.0667 97.5747 17.4267 96.5877 17.2844C95.0368 17 92.6398 17 92.6398 17C92.6398 17 90.2429 17 88.692 17.2844C87.705 17.4267 87.2115 18.0667 87.141 18.9911C87 19.9156 87 21.2667 87 21.2667C87 21.2667 87 22.6178 87.141 23.5422C87.282 24.4667 87.705 25.1067 88.692 25.2489C90.2429 25.5333 92.6398 25.5333 92.6398 25.5333C92.6398 25.5333 95.0368 25.5333 96.5877 25.2489C97.5747 25.0356 97.9977 24.4667 98.1387 23.5422C98.2797 22.6178 98.2797 21.2667 98.2797 21.2667C98.2797 21.2667 98.2797 19.9156 98.1387 18.9911ZM91.2299 23.4V19.1333L94.7548 21.2667L91.2299 23.4Z" fill="#ADADAD"/>
</g>
<g clip-path="url(#clip1_0_2443)">
<circle opacity="0.2" cx="165" cy="21" r="20" stroke="#D8D8D8"/>
<ellipse cx="167.562" cy="17.7676" rx="0.676782" ry="0.682667" fill="#ADADAD"/>
<path fill-rule="evenodd" clip-rule="evenodd" d="M164.64 23.5333C163.085 23.5333 161.82 22.2576 161.82 20.6889C161.82 19.1202 163.085 17.8445 164.64 17.8445C166.195 17.8445 167.46 19.1202 167.46 20.6889C167.46 22.2576 166.195 23.5333 164.64 23.5333ZM164.64 19.2667C163.863 19.2667 163.23 19.9045 163.23 20.6889C163.23 21.4733 163.863 22.1111 164.64 22.1111C165.418 22.1111 166.05 21.4733 166.05 20.6889C166.05 19.9045 165.418 19.2667 164.64 19.2667Z" fill="#ADADAD"/>
<path fill-rule="evenodd" clip-rule="evenodd" d="M167.46 26.3778H161.82C160.37 26.3778 159 24.9954 159 23.5333V17.8444C159 16.3824 160.37 15 161.82 15H167.46C168.909 15 170.28 16.3824 170.28 17.8444V23.5333C170.28 24.9954 168.909 26.3778 167.46 26.3778ZM161.82 16.4222C161.161 16.4222 160.41 17.1796 160.41 17.8444V23.5333C160.41 24.211 161.148 24.9556 161.82 24.9556H167.46C168.119 24.9556 168.87 24.1982 168.87 23.5333V17.8444C168.87 17.1796 168.119 16.4222 167.46 16.4222H161.82Z" fill="#ADADAD"/>
</g>
<defs>
<clipPath id="clip0_0_2443">
<rect width="40" height="40" fill="white" transform="translate(73 1)"/>
</clipPath>
<clipPath id="clip1_0_2443">
<rect width="40" height="40" fill="white" transform="translate(145 1)"/>
</clipPath>
</defs>
</svg>
